# xmcd CD database file
#
# Track frame offsets:
#	170
#	13800
#	27335
#	39212
#	52327
#	64905
#	85862
#	98357
#	112282
#	126215
#	140107
#	150345
#
# Disc length: 2204 seconds
#
# Revision: 0
# Processed by: cddbd v1.5.1PL0 Copyright (c) Steve Scherf et al.
# Submitted via: CDex 1.51
#
DISCID=a1089a0c
DTITLE=Various Artist - Merengues Tipicos
DYEAR=1995
DGENRE=Merengue
TTITLE0=Mi Derriengue - Trio Reynoso
TTITLE1=Loreta (Mis Amores) - Luis Perez Y Su Orquesta
TTITLE2=La Ligadura - Luis Kalaff
TTITLE3=Melaito - Conjuto Tipico Cabaeno
TTITLE4=Maricusa - Joseito Mateo
TTITLE5=La Canada - Dioris Valladares
TTITLE6=La Soga - Guandulito
TTITLE7=Con la Botella en la Mano - El Indio Bravo
TTITLE8=Las Mellizas - Pepiton Guzman
TTITLE9=Las Auroras - Luis Kalaff
TTITLE10=Papa Boco - Damiron and Chapuseaus
TTITLE11=Fiesta - Orquesta Santa Cecilia
EXTD=YEAR: 1995
EXTT0=
EXTT1=
EXTT2=
EXTT3=
EXTT4=
EXTT5=
EXTT6=
EXTT7=
EXTT8=
EXTT9=
EXTT10=
EXTT11=
PLAYORDER=
